<svg width="60" height="60" viewBox="0 0 60 60" fill="none" xmlns="http://www.w3.org/2000/svg">
<g id="Iconly/Bulk/3 User">
<rect id="Rectangle 12" width="60" height="60" rx="30" fill="#40D082"/>
<g id="3 User">
<g id="Fill 1">
<path d="M29.8938 34.2915C22.7063 34.2915 16.6418 35.466 16.6418 39.9988C16.6418 44.5335 22.7455 45.6667 29.8938 45.6667C37.0813 45.6667 43.1458 44.4922 43.1458 39.9594C43.1458 35.4247 37.0421 34.2915 29.8938 34.2915Z" fill="black"/>
<path d="M29.8938 34.2915C22.7063 34.2915 16.6418 35.466 16.6418 39.9988C16.6418 44.5335 22.7455 45.6667 29.8938 45.6667C37.0813 45.6667 43.1458 44.4922 43.1458 39.9594C43.1458 35.4247 37.0421 34.2915 29.8938 34.2915" stroke="#40D082"/>
</g>
<path id="Fill 3" d="M29.8936 29.973C34.7605 29.973 38.663 26.048 38.663 21.1531C38.663 16.2564 34.7605 12.3333 29.8936 12.3333C25.0267 12.3333 21.1243 16.2564 21.1243 21.1531C21.1243 26.048 25.0267 29.973 29.8936 29.973Z" fill="black"/>
<path id="Fill 6" d="M48.9333 23.2068C50.1924 18.2537 46.5008 13.8054 41.7999 13.8054C41.2888 13.8054 40.8 13.8616 40.3225 13.9573C40.2591 13.9723 40.1882 14.0042 40.1509 14.0605C40.108 14.1318 40.1397 14.2275 40.1863 14.2894C41.5984 16.2819 42.4099 18.7078 42.4099 21.3119C42.4099 23.8072 41.6656 26.1336 40.3598 28.0642C40.2255 28.263 40.3449 28.5313 40.5818 28.5726C40.9101 28.6308 41.2459 28.6608 41.5891 28.6702C45.0121 28.7602 48.0845 26.5445 48.9333 23.2068Z" fill="black"/>
<g id="Fill 8">
<path d="M52.5191 34.8686C51.8923 33.5253 50.3795 32.6041 48.0794 32.1519C46.9937 31.8855 44.0557 31.5103 41.3228 31.5609C41.2818 31.5665 41.2594 31.5947 41.2557 31.6134C41.2501 31.6397 41.2613 31.6847 41.3154 31.7129C42.5783 32.3414 47.4601 35.075 46.8464 40.8404C46.8202 41.0899 47.0198 41.3057 47.2679 41.2682C48.4693 41.0955 51.5603 40.4276 52.5191 38.347C53.0489 37.2475 53.0489 35.9699 52.5191 34.8686Z" fill="black"/>
<path d="M52.5191 34.8686C51.8923 33.5253 50.3795 32.6041 48.0794 32.1519C46.9937 31.8855 44.0557 31.5103 41.3228 31.5609C41.2818 31.5665 41.2594 31.5947 41.2557 31.6134C41.2501 31.6397 41.2613 31.6847 41.3154 31.7129C42.5783 32.3414 47.4601 35.075 46.8464 40.8404C46.8202 41.0899 47.0198 41.3057 47.2679 41.2682C48.4693 41.0955 51.5603 40.4276 52.5191 38.347C53.0489 37.2475 53.0489 35.9699 52.5191 34.8686" stroke="#40D082"/>
</g>
<path id="Fill 11" d="M19.6767 13.9579C19.201 13.8603 18.7104 13.8059 18.1993 13.8059C13.4984 13.8059 9.80672 18.2543 11.0677 23.2073C11.9146 26.545 14.987 28.7608 18.4101 28.6707C18.7533 28.6613 19.0909 28.6294 19.4174 28.5732C19.6543 28.5319 19.7737 28.2636 19.6394 28.0647C18.3336 26.1323 17.5893 23.8077 17.5893 21.3124C17.5893 18.7064 18.4026 16.2806 19.8147 14.29C19.8595 14.228 19.8931 14.1324 19.8483 14.0611C19.811 14.0029 19.742 13.9729 19.6767 13.9579Z" fill="black"/>
<g id="Fill 13">
<path d="M11.9198 32.1514C9.61976 32.6036 8.10877 33.5247 7.48199 34.8681C6.95034 35.9694 6.95034 37.247 7.48199 38.3483C8.44081 40.4271 11.5318 41.0969 12.7332 41.2677C12.9813 41.3052 13.179 41.0913 13.1529 40.8399C12.5391 35.0763 17.421 32.3428 18.6857 31.7143C18.7379 31.6842 18.7491 31.6411 18.7435 31.6129C18.7398 31.5942 18.7193 31.566 18.6783 31.5623C15.9435 31.5098 13.0074 31.885 11.9198 32.1514Z" fill="black"/>
<path d="M11.9198 32.1514C9.61976 32.6036 8.10877 33.5247 7.48199 34.8681C6.95034 35.9694 6.95034 37.247 7.48199 38.3483C8.44081 40.4271 11.5318 41.0969 12.7332 41.2677C12.9813 41.3052 13.179 41.0913 13.1529 40.8399C12.5391 35.0763 17.421 32.3428 18.6857 31.7143C18.7379 31.6842 18.7491 31.6411 18.7435 31.6129C18.7398 31.5942 18.7193 31.566 18.6783 31.5623C15.9435 31.5098 13.0074 31.885 11.9198 32.1514" stroke="#40D082"/>
</g>
</g>
</g>
</svg>
