<svg width="30" height="30" viewBox="0 0 30 30" fill="none" xmlns="http://www.w3.org/2000/svg">
<g id="Iconly/Bulk/Calendar">
<g id="Calendar">
<path id="Fill 1" d="M3.75 11.5712V21.0875C3.75 25.0375 6.24451 27.5 10.1592 27.5H19.8285C23.7802 27.5 26.25 25.0875 26.25 21.1637V11.5712H3.75Z" fill="#130F26"/>
<path id="Path" d="M20.0631 22.6125C19.495 22.6 19.0381 22.125 19.0381 21.55C19.0257 20.975 19.4827 20.5012 20.0507 20.4887H20.0631C20.6435 20.4887 21.1127 20.9637 21.1127 21.55C21.1127 22.1375 20.6435 22.6125 20.0631 22.6125Z" fill="white"/>
<path id="Path_2" d="M15.0247 18.0125C14.4566 18.0387 13.9873 17.5875 13.9626 17.0137C13.9626 16.4387 14.4072 15.9637 14.9753 15.9375C15.531 15.9375 15.9879 16.3763 16.0002 16.9375C16.0249 17.5137 15.5804 17.9887 15.0247 18.0125Z" fill="white"/>
<path id="Path_3" d="M15.0247 22.55C14.4566 22.5762 13.9873 22.125 13.9626 21.55C13.9626 20.975 14.4072 20.5012 14.9753 20.475C15.531 20.475 15.9879 20.9137 16.0002 21.4762C16.0249 22.0512 15.5804 22.5262 15.0247 22.55Z" fill="white"/>
<path id="Path_4" d="M9.94923 18.0125C9.38117 18.0387 8.91191 17.5875 8.88721 17.0137C8.88721 16.4387 9.33177 15.9637 9.89983 15.9375C10.4555 15.9375 10.9125 16.3763 10.9248 16.9375C10.9495 17.5137 10.5049 17.9887 9.94923 18.0125Z" fill="white"/>
<path id="Path_5" d="M9.93678 22.55C9.36872 22.5762 8.89945 22.125 8.87476 21.55C8.87476 20.975 9.31932 20.5012 9.88738 20.475C10.4431 20.475 10.9 20.9137 10.9124 21.4762C10.937 22.0512 10.4925 22.5262 9.93678 22.55Z" fill="white"/>
<path id="Path_6" d="M19.0505 17.0012C19.0505 16.4262 19.4951 15.9637 20.0632 15.9512C20.6189 15.9512 21.0634 16.4 21.0881 16.9512C21.1005 17.5262 20.6559 18.0012 20.1002 18.0125C19.5322 18.025 19.0629 17.5875 19.0505 17.0137V17.0012Z" fill="white"/>
<path id="Fill 4" d="M3.75415 11.5711C3.7702 10.8374 3.83195 9.38112 3.94803 8.91237C4.54079 6.27612 6.55368 4.60112 9.43102 4.36237H20.5699C23.4225 4.61362 25.4601 6.29987 26.0529 8.91237C26.1677 9.36862 26.2295 10.8361 26.2455 11.5711H3.75415Z" fill="#40D082"/>
<path id="Fill 6" d="M10.3811 8.2375C10.9244 8.2375 11.3319 7.82625 11.3319 7.275V3.46375C11.3319 2.9125 10.9244 2.5 10.3811 2.5C9.83769 2.5 9.43018 2.9125 9.43018 3.46375V7.275C9.43018 7.82625 9.83769 8.2375 10.3811 8.2375Z" fill="#130F26"/>
<path id="Fill 9" d="M19.6186 8.2375C20.1496 8.2375 20.5695 7.82625 20.5695 7.275V3.46375C20.5695 2.9125 20.1496 2.5 19.6186 2.5C19.0752 2.5 18.6677 2.9125 18.6677 3.46375V7.275C18.6677 7.82625 19.0752 8.2375 19.6186 8.2375Z" fill="#130F26"/>
</g>
</g>
</svg>
