<svg width="26" height="26" viewBox="0 0 26 26" fill="none" xmlns="http://www.w3.org/2000/svg">
<g id="Iconly/Two-tone/Category">
<path id="Fill 1" d="M26 13C26 20.1812 20.1799 26 13 26C5.8201 26 0 20.1812 0 13C0 5.8214 5.8201 0 13 0C20.1799 0 26 5.8214 26 13" fill="#40D082"/>
<g id="Category">
<path id="Stroke 1" fill-rule="evenodd" clip-rule="evenodd" d="M5 8.11111C5 5.77759 5.02499 5 8.11111 5C11.1972 5 11.2222 5.77759 11.2222 8.11111C11.2222 10.4446 11.2321 11.2222 8.11111 11.2222C4.99016 11.2222 5 10.4446 5 8.11111Z" stroke="#130F26" stroke-width="1.5" stroke-linecap="round" stroke-linejoin="round"/>
<path id="Stroke 3" opacity="0.4" fill-rule="evenodd" clip-rule="evenodd" d="M14.7778 8.11111C14.7778 5.77759 14.8028 5 17.8889 5C20.9751 5 21.0001 5.77759 21.0001 8.11111C21.0001 10.4446 21.0099 11.2222 17.8889 11.2222C14.768 11.2222 14.7778 10.4446 14.7778 8.11111Z" stroke="#130F26" stroke-width="1.5" stroke-linecap="round" stroke-linejoin="round"/>
<path id="Stroke 5" fill-rule="evenodd" clip-rule="evenodd" d="M5 17.8889C5 15.5554 5.02499 14.7778 8.11111 14.7778C11.1972 14.7778 11.2222 15.5554 11.2222 17.8889C11.2222 20.2224 11.2321 21 8.11111 21C4.99016 21 5 20.2224 5 17.8889Z" stroke="#130F26" stroke-width="1.5" stroke-linecap="round" stroke-linejoin="round"/>
<path id="Stroke 7" fill-rule="evenodd" clip-rule="evenodd" d="M14.7778 17.8889C14.7778 15.5554 14.8028 14.7778 17.8889 14.7778C20.9751 14.7778 21.0001 15.5554 21.0001 17.8889C21.0001 20.2224 21.0099 21 17.8889 21C14.768 21 14.7778 20.2224 14.7778 17.8889Z" stroke="#130F26" stroke-width="1.5" stroke-linecap="round" stroke-linejoin="round"/>
</g>
</g>
</svg>
