<svg width="30" height="30" viewBox="0 0 30 30" fill="none" xmlns="http://www.w3.org/2000/svg">
<g id="Iconly/Bulk/Delete">
<g id="Delete">
<path id="Fill 1" d="M24.5542 11.8606C24.5542 11.9456 23.888 20.3715 23.5075 23.9176C23.2692 26.0938 21.8663 27.4138 19.762 27.4513C18.1451 27.4875 16.5623 27.5 15.005 27.5C13.3516 27.5 11.7348 27.4875 10.1653 27.4513C8.13145 27.4025 6.72732 26.0563 6.50121 23.9176C6.10975 20.359 5.45571 11.9456 5.44355 11.8606C5.4314 11.6043 5.51406 11.3606 5.68183 11.1631C5.84716 10.9806 6.08544 10.8706 6.33587 10.8706H23.674C23.9233 10.8706 24.1494 10.9806 24.3281 11.1631C24.4946 11.3606 24.5785 11.6043 24.5542 11.8606Z" fill="#40D082"/>
<path id="Fill 4" d="M26.25 7.47108C26.25 6.95734 25.8452 6.55486 25.3589 6.55486H21.7143C20.9727 6.55486 20.3284 6.02738 20.163 5.28365L19.9588 4.37243C19.6731 3.27122 18.6872 2.5 17.5809 2.5H12.4203C11.3019 2.5 10.3257 3.27122 10.029 4.43243L9.83818 5.2849C9.67163 6.02738 9.02731 6.55486 8.28696 6.55486H4.64232C4.15482 6.55486 3.75 6.95734 3.75 7.47108V7.94606C3.75 8.44729 4.15482 8.86228 4.64232 8.86228H25.3589C25.8452 8.86228 26.25 8.44729 26.25 7.94606V7.47108Z" fill="#130F26"/>
</g>
</g>
</svg>
