<svg width="60" height="60" viewBox="0 0 60 60" fill="none" xmlns="http://www.w3.org/2000/svg">
<g id="Iconly/Bulk/Document">
<rect id="Rectangle 13" width="60" height="60" rx="30" fill="#40D082"/>
<g id="Document">
<path id="Path" d="M38.7312 9.16669H21.2708C14.9375 9.16669 11.25 12.875 11.25 19.2292V40.75C11.25 47.2084 14.9375 50.8334 21.2708 50.8334H38.7312C45.1667 50.8334 48.75 47.2084 48.75 40.75V19.2292C48.75 12.875 45.1667 9.16669 38.7312 9.16669Z" fill="black"/>
<path id="Combined Shape" fill-rule="evenodd" clip-rule="evenodd" d="M21.8333 18.8542V18.875C20.9354 18.875 20.2083 19.6042 20.2083 20.5C20.2083 21.3959 20.9354 22.125 21.8333 22.125H28.0604C28.9583 22.125 29.6875 21.3959 29.6875 20.4771C29.6875 19.5834 28.9583 18.8542 28.0604 18.8542H21.8333ZM38.1667 31.5417H21.8333C20.9354 31.5417 20.2083 30.8125 20.2083 29.9167C20.2083 29.0208 20.9354 28.2896 21.8333 28.2896H38.1667C39.0625 28.2896 39.7917 29.0208 39.7917 29.9167C39.7917 30.8125 39.0625 31.5417 38.1667 31.5417ZM38.1666 41.0625H21.8333C21.2083 41.1459 20.6041 40.8334 20.2708 40.3125C19.9374 39.7709 19.9374 39.0834 20.2708 38.5625C20.6041 38.0209 21.2083 37.7292 21.8333 37.7917H38.1666C38.9978 37.875 39.6249 38.5834 39.6249 39.4375C39.6249 40.2688 38.9978 40.9792 38.1666 41.0625Z" fill="#40D082"/>
</g>
</g>
</svg>
