<svg width="35" height="35" viewBox="0 0 35 35" fill="none" xmlns="http://www.w3.org/2000/svg">
<g id="Iconly/Bulk/Edit">
<g id="Edit">
<path id="Fill 1" d="M29.1559 27.6401H20.8517C20.0415 27.6401 19.3826 28.3095 19.3826 29.1326C19.3826 29.9572 20.0415 30.625 20.8517 30.625H29.1559C29.9661 30.625 30.625 29.9572 30.625 29.1326C30.625 28.3095 29.9661 27.6401 29.1559 27.6401Z" fill="#40D082"/>
<path id="Fill 3" d="M15.034 10.0681L22.903 16.4266C23.0928 16.5787 23.1252 16.8577 22.977 17.0521L13.6482 29.2078C13.0617 29.9587 12.1975 30.3836 11.2716 30.3992L6.1789 30.462C5.90729 30.4651 5.66963 30.277 5.6079 30.0073L4.45048 24.9751C4.24985 24.0502 4.45048 23.0939 5.03691 22.3571L14.4121 10.1434C14.5633 9.94744 14.8426 9.91295 15.034 10.0681Z" fill="#130F26"/>
<path id="Fill 5" d="M26.4259 12.6371L24.9089 14.5308C24.7561 14.7237 24.4814 14.755 24.2916 14.6014C22.4474 13.109 17.7251 9.27915 16.4149 8.21784C16.2235 8.06107 16.1973 7.78203 16.3516 7.58764L17.8146 5.77071C19.1418 4.06195 21.4567 3.90518 23.324 5.39447L25.4691 7.10323C26.3487 7.793 26.9351 8.70225 27.1358 9.65853C27.3672 10.7104 27.1203 11.7435 26.4259 12.6371Z" fill="#40D082"/>
</g>
</g>
</svg>
