<svg width="30" height="30" viewBox="0 0 30 30" fill="none" xmlns="http://www.w3.org/2000/svg">
<g id="Iconly/Bulk/Paper Fail">
<g id="Paper Fail">
<path id="Fill 3" d="M23.5111 11.2762C22.9468 11.2762 22.1993 11.2638 21.2686 11.2638C18.9988 11.2638 17.1324 9.385 17.1324 7.09375V3.07375C17.1324 2.7575 16.8787 2.5 16.5656 2.5H9.95421C6.87005 2.5 4.375 5.0325 4.375 8.13625V21.605C4.375 24.8613 6.98886 27.5 10.2129 27.5H20.0569C23.1324 27.5 25.625 24.9837 25.625 21.8775V11.8388C25.625 11.5213 25.3725 11.265 25.0582 11.2663C24.5297 11.27 23.896 11.2762 23.5111 11.2762" fill="#40D082"/>
<path id="Fill 1" d="M20.1049 3.20915C19.7324 2.8204 19.0786 3.0879 19.0786 3.62665V6.9229C19.0786 8.3054 20.2174 9.4429 21.5999 9.4429C22.4711 9.4529 23.6811 9.4554 24.7086 9.4529C25.2349 9.45165 25.5024 8.8229 25.1374 8.4429C23.8186 7.07165 21.4574 4.61415 20.1049 3.20915" fill="#40D082"/>
<path id="Fill 6" d="M16.1687 16.2316L17.6949 14.7041C18.0587 14.3416 18.0587 13.7529 17.6949 13.3891C17.3312 13.0254 16.7424 13.0254 16.3787 13.3891L14.8524 14.9141L13.3262 13.3891C12.9624 13.0254 12.3724 13.0254 12.0087 13.3891C11.6449 13.7529 11.6449 14.3416 12.0087 14.7041L13.5362 16.2316L12.0087 17.7579C11.6449 18.1216 11.6449 18.7104 12.0087 19.0729C12.1912 19.2554 12.4287 19.3466 12.6674 19.3466C12.9062 19.3466 13.1437 19.2554 13.3262 19.0729L14.8524 17.5479L16.3787 19.0729C16.5599 19.2554 16.7987 19.3466 17.0374 19.3466C17.2749 19.3466 17.5137 19.2554 17.6949 19.0729C18.0587 18.7104 18.0587 18.1216 17.6949 17.7579L16.1687 16.2316Z" fill="#130F26"/>
</g>
</g>
</svg>
