<svg width="30" height="30" viewBox="0 0 30 30" fill="none" xmlns="http://www.w3.org/2000/svg">
<g id="Iconly/Bulk/Paper Plus">
<g id="Paper Plus">
<path id="Fill 3" d="M23.511 11.2762C22.9466 11.2762 22.1991 11.2638 21.2683 11.2638C18.9984 11.2638 17.1319 9.385 17.1319 7.09375V3.07375C17.1319 2.7575 16.8782 2.5 16.5663 2.5H9.95453C6.86896 2.5 4.375 5.0325 4.375 8.13625V21.605C4.375 24.8612 6.98778 27.5 10.212 27.5H20.0566C23.1323 27.5 25.625 24.9837 25.625 21.8775V11.8387C25.625 11.5212 25.3725 11.265 25.0581 11.2662C24.5309 11.27 23.8959 11.2762 23.511 11.2762Z" fill="#40D082"/>
<path id="Fill 1" d="M20.1051 3.20915C19.7314 2.8204 19.0789 3.0879 19.0789 3.62665V6.9229C19.0789 8.3054 20.2176 9.4429 21.5989 9.4429C22.4714 9.4529 23.6814 9.4554 24.7089 9.4529C25.2351 9.45165 25.5026 8.8229 25.1376 8.4429C23.8189 7.07165 21.4576 4.61415 20.1051 3.20915Z" fill="#40D082"/>
<path id="Fill 6" d="M17.9591 15.2954H15.7991V13.1366C15.7991 12.6229 15.3829 12.2054 14.8691 12.2054C14.3554 12.2054 13.9379 12.6229 13.9379 13.1366V15.2954H11.7791C11.2654 15.2954 10.8491 15.7129 10.8491 16.2266C10.8491 16.7404 11.2654 17.1579 11.7791 17.1579H13.9379V19.3154C13.9379 19.8291 14.3554 20.2466 14.8691 20.2466C15.3829 20.2466 15.7991 19.8291 15.7991 19.3154V17.1579H17.9591C18.4729 17.1579 18.8904 16.7404 18.8904 16.2266C18.8904 15.7129 18.4729 15.2954 17.9591 15.2954Z" fill="#130F26"/>
</g>
</g>
</svg>
