<svg width="30" height="30" viewBox="0 0 30 30" fill="none" xmlns="http://www.w3.org/2000/svg">
<g id="Iconly/Bulk/Time Circle">
<g id="Time Circle">
<path id="Fill 1" d="M27.4998 14.9999C27.4998 21.9049 21.9035 27.4999 14.9998 27.4999C8.09601 27.4999 2.49976 21.9049 2.49976 14.9999C2.49976 8.09738 8.09601 2.49988 14.9998 2.49988C21.9035 2.49988 27.4998 8.09738 27.4998 14.9999Z" fill="#40D082"/>
<path id="Fill 4" d="M19.4668 19.768C19.303 19.768 19.138 19.7255 18.9868 19.6367L14.0793 16.7092C13.7968 16.5392 13.623 16.233 13.623 15.903V9.59424C13.623 9.07674 14.043 8.65674 14.5605 8.65674C15.078 8.65674 15.498 9.07674 15.498 9.59424V15.3705L19.948 18.0242C20.3918 18.2905 20.538 18.8655 20.273 19.3105C20.0968 19.6042 19.7855 19.768 19.4668 19.768Z" fill="#130F26"/>
</g>
</g>
</svg>
