<svg width="60" height="60" viewBox="0 0 60 60" fill="none" xmlns="http://www.w3.org/2000/svg">
<g id="Iconly/Bulk/Work">
<rect id="Rectangle 14" width="60" height="60" rx="30" fill="#40D082"/>
<g id="Work">
<path id="Fill 1" d="M9.16724 28.0803C9.2714 32.9511 9.56307 41.2823 9.60474 42.2011C9.75265 44.1657 10.5047 46.1511 11.6756 47.5511C13.3047 49.5157 15.311 50.3928 18.1089 50.3928C21.9756 50.4136 26.2381 50.4136 30.3776 50.4136C34.5339 50.4136 38.5672 50.4136 41.9735 50.3928C44.7318 50.3928 46.8006 49.4928 48.4089 47.5511C49.5797 46.1511 50.3318 44.1448 50.4381 42.2011C50.4797 41.4282 50.6881 32.3844 50.8131 28.0803H9.16724Z" fill="black"/>
<path id="Fill 4" d="M28.428 37.0504V39.7462C28.428 40.6087 29.128 41.3088 29.9905 41.3088C30.853 41.3088 31.553 40.6087 31.553 39.7462V37.0504C31.553 36.1879 30.853 35.4879 29.9905 35.4879C29.128 35.4879 28.428 36.1879 28.428 37.0504Z" fill="#40D082"/>
<g id="Fill 6">
<path fill-rule="evenodd" clip-rule="evenodd" d="M26.2735 35.3259C26.0652 36.0821 25.3381 36.5655 24.5506 36.4613C19.236 35.7196 14.1568 33.8342 9.86932 31.003C9.42974 30.7155 9.16724 30.2238 9.16724 29.6988V22.478C9.16724 18.103 12.7339 14.5446 17.1193 14.5446H21.2172C21.6089 11.5196 24.1714 9.16754 27.3006 9.16754H32.6797C35.8068 9.16754 38.3714 11.5196 38.7631 14.5446H42.8818C47.2547 14.5446 50.8131 18.103 50.8131 22.478V29.6988C50.8131 30.2238 50.5485 30.7134 50.1131 31.003C45.8172 33.8467 40.7172 35.7405 35.3672 36.48C35.2943 36.4905 35.2235 36.4946 35.1527 36.4946C34.4464 36.4946 33.8152 36.0175 33.6381 35.3175C33.2172 33.6592 31.711 32.4988 29.9797 32.4988C28.2256 32.4988 26.736 33.6342 26.2735 35.3259ZM32.6798 12.2925H27.3006C25.8985 12.2925 24.7277 13.2509 24.3777 14.5446H35.6006C35.2506 13.2509 34.0798 12.2925 32.6798 12.2925Z" fill="#130F26"/>
<path d="M24.5506 36.4613L24.4815 36.9565L24.485 36.957L24.5506 36.4613ZM26.2735 35.3259L26.7555 35.4587L26.7558 35.4577L26.2735 35.3259ZM9.86932 31.003L10.1448 30.5857L10.143 30.5845L9.86932 31.003ZM21.2172 14.5446V15.0446H21.6567L21.7131 14.6088L21.2172 14.5446ZM38.7631 14.5446L38.2672 14.6088L38.3236 15.0446H38.7631V14.5446ZM50.1131 31.003L50.3891 31.4199L50.39 31.4193L50.1131 31.003ZM35.3672 36.48L35.2988 35.9847L35.2965 35.9851L35.3672 36.48ZM33.6381 35.3175L34.1228 35.1949L34.1227 35.1946L33.6381 35.3175ZM24.3777 14.5446L23.895 14.4141L23.7244 15.0446H24.3777V14.5446ZM35.6006 14.5446V15.0446H36.2538L36.0832 14.4141L35.6006 14.5446ZM24.485 36.957C25.5188 37.0937 26.4806 36.4568 26.7555 35.4587L25.7914 35.1931C25.6497 35.7074 25.1573 36.0372 24.6161 35.9656L24.485 36.957ZM9.5938 31.4202C13.9464 34.2945 19.0968 36.205 24.4815 36.9565L24.6197 35.9661C19.3752 35.2342 14.3672 33.374 10.1448 30.5857L9.5938 31.4202ZM8.66724 29.6988C8.66724 30.3903 9.01301 31.0404 9.59564 31.4214L10.143 30.5845C9.84646 30.3906 9.66724 30.0573 9.66724 29.6988H8.66724ZM8.66724 22.478V29.6988H9.66724V22.478H8.66724ZM17.1193 14.0446C12.4589 14.0446 8.66724 17.8257 8.66724 22.478H9.66724C9.66724 18.3802 13.0089 15.0446 17.1193 15.0446V14.0446ZM21.2172 14.0446H17.1193V15.0446H21.2172V14.0446ZM27.3006 8.66754C23.9126 8.66754 21.1443 11.2137 20.7214 14.4804L21.7131 14.6088C22.0735 11.8256 24.4302 9.66754 27.3006 9.66754V8.66754ZM32.6797 8.66754H27.3006V9.66754H32.6797V8.66754ZM39.2589 14.4804C38.8359 11.2136 36.0655 8.66754 32.6797 8.66754V9.66754C35.5481 9.66754 37.9069 11.8257 38.2672 14.6088L39.2589 14.4804ZM42.8818 14.0446H38.7631V15.0446H42.8818V14.0446ZM51.3131 22.478C51.3131 17.8269 47.531 14.0446 42.8818 14.0446V15.0446C46.9785 15.0446 50.3131 18.379 50.3131 22.478H51.3131ZM51.3131 29.6988V22.478H50.3131V29.6988H51.3131ZM50.39 31.4193C50.9638 31.0376 51.3131 30.3922 51.3131 29.6988H50.3131C50.3131 30.0553 50.1331 30.3891 49.8362 30.5866L50.39 31.4193ZM35.4357 36.9753C40.8561 36.226 46.0277 34.307 50.3891 31.4199L49.8371 30.586C45.6067 33.3864 40.5783 35.2549 35.2988 35.9847L35.4357 36.9753ZM35.1527 36.9946C35.2434 36.9946 35.3382 36.9893 35.4379 36.975L35.2965 35.9851C35.2504 35.9916 35.2035 35.9946 35.1527 35.9946V36.9946ZM33.1533 35.4402C33.3876 36.366 34.2215 36.9946 35.1527 36.9946V35.9946C34.6713 35.9946 34.2428 35.6691 34.1228 35.1949L33.1533 35.4402ZM29.9797 32.9988C31.4862 32.9988 32.7898 34.0077 33.1534 35.4405L34.1227 35.1946C33.6446 33.3107 31.9358 31.9988 29.9797 31.9988V32.9988ZM26.7558 35.4577C27.1588 33.9838 28.4506 32.9988 29.9797 32.9988V31.9988C28.0006 31.9988 26.3132 33.2846 25.7912 35.194L26.7558 35.4577ZM27.3006 12.7925H32.6798V11.7925H27.3006V12.7925ZM24.8603 14.6752C25.1539 13.5899 26.1342 12.7925 27.3006 12.7925V11.7925C25.6629 11.7925 24.3014 12.9119 23.895 14.4141L24.8603 14.6752ZM35.6006 14.0446H24.3777V15.0446H35.6006V14.0446ZM32.6798 12.7925C33.8439 12.7925 34.8243 13.5897 35.1179 14.6752L36.0832 14.4141C35.6769 12.9121 34.3156 11.7925 32.6798 11.7925V12.7925Z" fill="#40D082"/>
</g>
</g>
</g>
</svg>
