<svg width="50" height="50" viewBox="0 0 50 50" fill="none" xmlns="http://www.w3.org/2000/svg">
<circle cx="25" cy="25" r="25" fill="#7294C7"/>
<path d="M37.2569 31.3941C37.2569 31.2903 37.1531 31.2903 37.1531 31.1865C36.738 30.3563 35.804 29.3185 34.5587 28.1769C33.936 27.658 33.6246 27.2429 33.4171 27.0354C33.1058 26.6203 33.1058 26.3089 33.2096 25.8938C33.3133 25.5825 33.7284 25.0636 34.4549 24.1296C34.87 23.6107 35.0775 23.2993 35.3889 22.988C36.9456 20.9124 37.672 19.5633 37.4644 18.9406L37.3607 18.8369C37.2569 18.7331 37.1531 18.6293 36.9456 18.6293C36.738 18.5255 36.4267 18.5255 36.1153 18.6293H32.1718C32.068 18.6293 32.068 18.6293 31.8604 18.6293C31.7566 18.6293 31.6529 18.6293 31.6529 18.6293H31.5491H31.4453L31.3415 18.7331C31.2377 18.8369 31.2377 18.8368 31.2377 18.9406C30.8226 20.0822 30.3037 21.0162 29.7848 22.054C29.4735 22.5729 29.1622 23.0918 28.8508 23.5069C28.5395 23.922 28.3319 24.2333 28.1244 24.4409C27.9168 24.6485 27.7093 24.7522 27.6055 24.9598C27.5017 25.0636 27.2942 25.1674 27.2942 25.0636C27.1904 25.0636 27.0866 25.0636 27.0866 24.9598C26.9828 24.856 26.879 24.7522 26.7753 24.6485C26.6715 24.5447 26.6715 24.3371 26.5677 24.1296C26.5677 23.922 26.5677 23.7144 26.5677 23.6107C26.5677 23.5069 26.5677 23.1956 26.5677 22.988C26.5677 22.6767 26.5677 22.4691 26.5677 22.3653C26.5677 22.054 26.5677 21.6389 26.5677 21.2238C26.5677 20.8087 26.5677 20.4973 26.5677 20.2898C26.5677 20.0822 26.5677 19.7709 26.5677 19.5633C26.5677 19.252 26.5677 19.0444 26.5677 18.9406C26.5677 18.8368 26.4639 18.6293 26.4639 18.5255C26.3602 18.4217 26.2564 18.318 26.1526 18.2142C26.0488 18.1104 25.8413 18.1104 25.7375 18.0066C25.2186 17.9028 24.5959 17.7991 23.8695 17.7991C22.209 17.7991 21.0674 17.9029 20.6523 18.1104C20.4448 18.2142 20.2372 18.318 20.1334 18.5255C19.9259 18.7331 19.9259 18.8369 20.0296 18.8369C20.5485 18.9406 20.9637 19.1482 21.1712 19.4595L21.275 19.6671C21.3788 19.7709 21.3788 19.9784 21.4825 20.2898C21.5863 20.6011 21.5863 20.9124 21.5863 21.3275C21.5863 21.9502 21.5863 22.5729 21.5863 22.988C21.5863 23.5069 21.4825 23.8182 21.4825 24.1296C21.4825 24.4409 21.3788 24.6485 21.275 24.7522C21.1712 24.9598 21.1712 25.0636 21.0674 25.0636C21.0674 25.0636 21.0674 25.1673 20.9636 25.1673C20.8599 25.1673 20.7561 25.2711 20.5485 25.2711C20.4448 25.2711 20.2372 25.1674 20.1334 25.0636C19.9259 24.9598 19.7183 24.7522 19.6145 24.5447C19.407 24.3371 19.1994 24.0258 18.9919 23.6107C18.7843 23.1956 18.473 22.7804 18.2654 22.1578L18.0579 21.7427C17.9541 21.5351 17.7465 21.12 17.539 20.6011C17.3314 20.0822 17.1238 19.6671 16.9163 19.1482C16.8125 18.9406 16.7087 18.8369 16.605 18.7331H16.5012C16.5012 18.7331 16.3974 18.6293 16.2936 18.6293C16.1898 18.6293 16.0861 18.5255 15.9823 18.5255H12.2462C11.8311 18.5255 11.6236 18.6293 11.5198 18.7331L11.416 18.8369C11.416 18.8369 11.416 18.9406 11.416 19.0444C11.416 19.1482 11.416 19.252 11.5198 19.4595C12.0387 20.7049 12.6614 21.9502 13.284 23.1956C13.9067 24.3371 14.5294 25.3749 14.9445 26.1014C15.4634 26.8278 15.8785 27.5543 16.3974 28.1769C16.9163 28.7996 17.2276 29.2147 17.3314 29.4223C17.539 29.6298 17.6427 29.7336 17.7465 29.8374L18.0579 30.1487C18.2654 30.3563 18.5767 30.6676 18.9919 30.979C19.407 31.2903 19.9259 31.6016 20.4448 31.913C20.9636 32.2243 21.5863 32.4319 22.209 32.6394C22.9355 32.847 23.5581 32.9508 24.1808 32.847H25.7375C26.0488 32.847 26.2564 32.7432 26.4639 32.5356L26.5677 32.4319C26.5677 32.3281 26.6715 32.3281 26.6715 32.2243C26.6715 32.1205 26.6715 32.0167 26.6715 31.8092C26.6715 31.3941 26.6715 31.0827 26.7753 30.7714C26.879 30.4601 26.8791 30.2525 26.9828 30.045C27.0866 29.8374 27.1904 29.7336 27.2942 29.6298C27.3979 29.5261 27.5017 29.4223 27.5017 29.4223H27.6055C27.813 29.3185 28.1244 29.4223 28.3319 29.6298C28.6433 29.8374 28.9546 30.1487 29.1622 30.4601C29.3697 30.7714 29.6811 31.0827 30.0962 31.4979C30.5113 31.913 30.8226 32.2243 31.0302 32.3281L31.3415 32.5356C31.5491 32.6394 31.7566 32.7432 32.068 32.847C32.3793 32.9508 32.5869 32.9507 32.7944 32.9507L36.3229 32.847C36.6342 32.847 36.9456 32.7432 37.1531 32.6394C37.3607 32.5356 37.4644 32.4319 37.4644 32.2243C37.4644 32.1205 37.4644 31.913 37.4644 31.8092C37.2569 31.6016 37.2569 31.4978 37.2569 31.3941Z" fill="white"/>
</svg>
